<svg xmlns="http://www.w3.org/2000/svg" xml:space="preserve" width="907.2000366210939" height="561.599954223633" data-id="lg_EaXkz1hZLJIfo3R3r4" data-version="1" viewBox="277.20003662109355 463.2000457763672 907.2000366210939 561.599954223633"><path fill="#fff" stroke="transparent" d="M0 0h1500v1500H0z"></path><g data-padding="20"><g transform="translate(-580.935 -586.531)scale(1.73386)"><rect width="585.646" height="403.094" x="94.137" y="188.81" fill="none" rx="0" ry="0" transform="matrix(.95 0 0 .95 400 400)"></rect><path fill="#b49859" d="M553.062 742.95h-27.77q-9.41 0-14.3-2.38-4.88-2.38-6.57-7.77t-1.69-14.34v-82.04q0-9.13 1.69-14.48 1.69-5.34 6.57-7.67 4.89-2.33 14.3-2.33h25.12q21.93 0 33.72 8.04 11.78 8.04 11.78 22.66 0 7.21-3.29 13.15t-8.63 10.14q-5.35 4.2-11.65 6.31v.36q8.04 1.1 14.53 5.25 6.48 4.16 10.37 10.78 3.88 6.63 3.88 15.21 0 12.79-6.17 21.52-6.17 8.72-16.99 13.15-10.83 4.44-24.9 4.44m-20.82-97.94v64.77q0 6.12 2.19 8.77t8.22 2.65h6.94q9.23 0 14.85-4.75t5.62-12.97q0-7.86-5.48-12.33-5.49-4.48-14.17-4.48h.1q-2.2 0-3.29-.64-2.38-1.55-4.89-3.61-2.51-2.05-5.44-4.98-.91-1.18-.91-1.73 0-.73.91-1.74 2.93-2.92 5.44-5.02t4.89-3.57q1.28-.64 3.29-.64h-.1q5.4 0 9.92-4.02t4.52-12.6q0-8.68-4.84-11.56t-12.43-2.88h-4.93q-6.03 0-8.22 2.56t-2.19 8.77m161.33-25.85q5.02 7.03 10.28 18.13 5.25 11.1 10.18 24.35 4.94 13.24 8.91 27.09 3.98 13.84 6.53 26.63 2.56 12.79 2.93 22.74.09 4.85-4.39 4.85h-22.11q-4.29 0-4.47-4.3-.37-10.23-3.29-24.85h-49.88q-2.56 14.25-2.93 24.85-.18 4.3-4.65 4.3h-21.66q-1.64 0-2.74-.96-1.09-.96-1-3.34.45-10.14 2.97-23.07 2.51-12.92 6.53-26.81t8.95-27.18q4.94-13.29 10.23-24.34 5.3-11.06 10.33-18.09 2.65-3.75 5.62-5.48 2.96-1.74 7.35-1.74h13.15q4.48 0 7.5 1.74 3.01 1.73 5.66 5.48m-20.1 21.65h-.55q-6.03 9.59-11.05 22.93t-8.68 27.41h39.65q-3.84-14.07-8.86-27.41-5.03-13.34-10.51-22.93m130.73 102.14h-27.77q-9.41 0-14.3-2.38-4.88-2.38-6.57-7.77t-1.69-14.34v-82.04q0-9.13 1.69-14.48 1.69-5.34 6.57-7.67 4.89-2.33 14.3-2.33h25.12q21.93 0 33.71 8.04 11.79 8.04 11.79 22.66 0 7.21-3.29 13.15t-8.63 10.14q-5.35 4.2-11.65 6.31v.36q8.04 1.1 14.52 5.25 6.49 4.16 10.37 10.78 3.89 6.63 3.89 15.21 0 12.79-6.17 21.52-6.17 8.72-16.99 13.15-10.83 4.44-24.9 4.44m-20.83-97.94v64.77q0 6.12 2.2 8.77 2.19 2.65 8.22 2.65h6.94q9.23 0 14.85-4.75t5.62-12.97q0-7.86-5.49-12.33-5.48-4.48-14.16-4.48h.09q-2.19 0-3.28-.64-2.38-1.55-4.89-3.61-2.51-2.05-5.44-4.98-.91-1.18-.91-1.73 0-.73.91-1.74 2.93-2.92 5.44-5.02t4.89-3.57q1.27-.64 3.28-.64h-.09q5.39 0 9.92-4.02 4.52-4.02 4.52-12.6 0-8.68-4.84-11.56-4.85-2.88-12.43-2.88h-4.93q-6.03 0-8.22 2.56-2.2 2.56-2.2 8.77m149.1 51.35v41.75q0 2.74-1.14 3.79-1.15 1.06-3.89 1.06h-19.46q-2.74 0-3.88-1.06-1.14-1.05-1.14-3.79v-41.2l-18.18-21.1q-6.49-7.58-10.92-13.61t-6.62-12.47-2.19-15.12v-8.04q0-2.65.91-4.02 4.11-6.03 11.51-12.7 1.37-1.1 2.47-1.1 1.09 0 2.28 1.1 4.02 3.47 6.76 6.62t4.75 6.08q.92 1.46.92 4.02v7.95q0 5.93 3.47 13.15t11.69 15.9l8.86 9.32 8.68-9.32q7.4-7.95 11.28-15.17 3.89-7.22 3.89-13.79v-8.04q0-2.65.91-4.02 3.93-5.94 11.15-12.7 1.37-1.1 2.28-1.1 1.1 0 2.28 1.1 3.84 3.47 6.54 6.62 2.69 3.15 4.61 6.08.91 1.46.91 4.02v8.04q0 10.05-4.38 19.23-4.39 9.18-14.89 20.87Zm-379.41 219.96h-27.77q-9.41 0-14.3-2.38-4.88-2.37-6.57-7.76t-1.69-14.34V809.8q0-9.14 1.69-14.48 1.69-5.35 6.57-7.68 4.89-2.32 14.3-2.32h25.12q21.93 0 33.72 8.03 11.78 8.04 11.78 22.66 0 7.22-3.29 13.16-3.29 5.93-8.63 10.14-5.35 4.2-11.65 6.3v.37q8.04 1.09 14.53 5.25 6.48 4.16 10.37 10.78 3.88 6.62 3.88 15.21 0 12.79-6.17 21.51-6.17 8.73-16.99 13.16-10.83 4.43-24.9 4.43m-20.82-97.93v64.77q0 6.12 2.19 8.77t8.22 2.65h6.94q9.23 0 14.85-4.75t5.62-12.98q0-7.85-5.48-12.33-5.49-4.48-14.17-4.48h.1q-2.2 0-3.29-.63-2.38-1.56-4.89-3.61-2.51-2.06-5.44-4.98-.91-1.19-.91-1.74 0-.73.91-1.73 2.93-2.93 5.44-5.03t4.89-3.56q1.28-.64 3.29-.64h-.1q5.4 0 9.92-4.02t4.52-12.61q0-8.68-4.84-11.55-4.84-2.88-12.43-2.88h-4.93q-6.03 0-8.22 2.56-2.19 2.55-2.19 8.77m146.98 100.21q-19 0-33.07-7.3-14.07-7.31-21.79-22.02t-7.72-36.73q0-34.99 17.08-52.21 17.09-17.22 47.6-17.22 28.59 0 45.22 16.86 16.63 16.85 16.63 49.92 0 23.39-7.77 38.6-7.76 15.21-22.11 22.66-14.34 7.44-34.07 7.44m.55-24.66q16.44 0 24.39-11.79 7.95-11.78 7.95-30.6 0-21.84-7.5-32.8-7.49-10.96-24.11-10.96-32.8 0-32.8 43.21 0 19.28 7.9 31.11t24.17 11.83m115.75-74.64v92.18q0 2.74-1.14 3.79t-3.88 1.05h-19.46q-2.74 0-3.88-1.05t-1.14-3.79V809.8q0-9.14 1.69-14.48 1.69-5.35 6.57-7.68 4.89-2.32 14.3-2.32h24.21q47.69 0 47.69 36.63 0 11.14-3.75 18.27-3.74 7.13-9.32 11.1-5.57 3.97-10.96 5.98v.46q6.12 4.02 11.65 10.55t10 14.16q4.48 7.63 7.59 15.08 3.1 7.44 4.29 13.29.55 2.74.04 4.11-.5 1.37-3.15 1.37h-21.1q-2.38 0-4.16-1-1.78-1.01-3.24-4.66-6.94-17.45-15.99-28.46-9.04-11.01-17.45-17.68-5.39-4.29-5.39-6.12 0-1.46 1.74-4.02 1.1-1.55 3.2-3.75 2.1-2.19 3.65-3.28 1.55-1.1 2.51-1.37.96-.28 2.97-.28 6.76 0 11.28-4.66 4.53-4.66 4.53-14.71 0-9.5-4.8-13.93t-13.2-4.43h-5.48q-6.03 0-8.22 2.56-2.2 2.56-2.2 8.77m120.41 2.37v89.81q0 2.74-1.05 3.79t-3.7 1.05h-18.36q-2.56 0-3.66-1.05-1.09-1.05-1.09-3.79V795.73q0-5.39 2.1-7.9t7.4-2.51h8.5q4.65 0 8.81 1.23t8.86 5.53q4.71 4.29 10.97 13.29 6.25 9 15.11 24.53 8.5 14.8 13.66 23.66t8 13.52q2.83 4.66 4.24 6.67 1.42 2.01 2.33 3.29v-77.11q0-2.65.83-4.02 3.92-6.03 10.87-12.7 1.37-1.09 2.28-1.09 1.01 0 2.19 1.09 3.75 3.48 6.35 6.63 2.61 3.15 4.53 6.07.82 1.46.82 4.02v108.81q0 4.11-1.56 5.84-1.55 1.74-5.66 1.74h-8.77q-3.93 0-8.04-1.32-4.11-1.33-9.32-6.03-5.2-4.71-12.33-14.67-7.13-9.95-17.18-27.22-8.49-14.71-13.56-23.39t-7.72-13.11-3.84-6.21-2.01-2.7"></path></g><path fill="transparent" stroke="transparent" stroke-width="1.799" d="M250 405.576h1000v688.848H250z"></path></g></svg>